<?xml version="1.0" encoding="utf-8"?>
<!-- Generator: Adobe Illustrator 24.1.1, SVG Export Plug-In . SVG Version: 6.00 Build 0)  -->
<svg version="1.1" id="Layer_1" xmlns="http://www.w3.org/2000/svg" xmlns:xlink="http://www.w3.org/1999/xlink" x="0px" y="0px"
	 viewBox="0 0 1024 1024" style="enable-background:new 0 0 1024 1024;" xml:space="preserve">
<style type="text/css">
	.st0{fill:url(#SVGID_1_);}
	.st1{fill:url(#SVGID_2_);}
	.st2{fill:url(#SVGID_3_);}
	.st3{fill:url(#SVGID_4_);}
	.st4{fill:url(#SVGID_5_);}
	.st5{fill:url(#SVGID_6_);}
	.st6{fill:url(#SVGID_7_);}
	.st7{fill:url(#SVGID_8_);}
	.st8{fill:url(#SVGID_9_);}
	.st9{fill:url(#SVGID_10_);}
	.st10{fill:url(#SVGID_11_);}
	.st11{fill:url(#SVGID_12_);}
	.st12{fill:url(#SVGID_13_);}
	.st13{fill:url(#SVGID_14_);}
	.st14{fill:url(#SVGID_15_);}
	.st15{fill:url(#SVGID_16_);}
	.st16{fill:#FFFFFF;}
</style>
<path d="M288.14,463.34c34.62,0,66.78,0,99.66,0c40.91,39.01,82.21,78.4,124.61,118.83c41.26-39.57,82.36-78.98,123.76-118.69
	c32.18,0,64.62,0,99.68,0c-58.65,56.13-115.76,110.78-173.87,166.4c57.31,54.85,114.44,109.52,172.89,165.46
	c-33.95,0-66.21,0-99.69,0c-40.09-38.46-81.03-77.73-122.72-117.72c-41.76,39.8-82.99,79.09-123.92,118.1c-32.97,0-65.37,0-99.65,0
	c58.39-55.86,115.55-110.55,173.31-165.82C404.59,574.77,347.17,519.82,288.14,463.34z"/>
<g>
	<g>
		<linearGradient id="SVGID_1_" gradientUnits="userSpaceOnUse" x1="379.0269" y1="329.8258" x2="639.6487" y2="329.8258">
			<stop  offset="0" style="stop-color:#BC820C"/>
			<stop  offset="1" style="stop-color:#DFA52D"/>
		</linearGradient>
		<path class="st0" d="M606.3,396.71c-44.97-5.89-89.7-8.55-134.61-5.61c-18.86,1.23-37.68,3.11-56.46,5.28
			c-5.19,0.6-7.75-0.25-9.75-5.28c-7.99-20.06-16.43-39.95-24.61-59.94c-0.84-2.06-3.29-4.72-0.69-6.49
			c1.81-1.24,3.8,1.39,5.49,2.61c6.8,4.89,13.74,9.62,20.16,14.98c2.04,1.7,9.9,2.83,2.77,8.31c-0.96,0.73-0.3,1.51,2.17,1.3
			c6.65-0.56,11.21-6.12,11.96-15.05c1.28-15.07,2.36-30.16,3.58-45.24c0.17-2.14,0.65-4.26,0.98-6.39c0.69-4.48,2.43-3.99,4.99-1.2
			c12.81,13.97,23.86,29.33,35.47,44.26c3.22,4.14,0.19,4.94-2.88,5.85c-1.22,0.36-2.44,0.75-3.65,1.12
			c0.86,1.71,2.55,1.82,4.13,2.06c6.43,1.01,11.64-1.16,15.9-5.99c4.23-4.8,6.23-10.69,8.19-16.58c5.02-15.11,9.93-30.27,15-45.37
			c0.89-2.66,0.99-6.55,4.79-6.68c3.93-0.14,4.06,3.8,4.94,6.44c5.1,15.37,10.03,30.8,15.09,46.19c1.77,5.4,3.92,10.65,7.55,15.14
			c3.37,4.18,7.51,7.02,13.06,7.12c2.35,0.04,5.97,0.63,6.51-1.68c0.62-2.67-3.08-1.58-4.76-2.4c-2.97-1.44-2.33-3-0.76-5.03
			c11.68-15.22,22.87-30.81,35.48-45.28c1.01-1.16,2.02-2.95,3.87-2.08c1.63,0.76,1.57,2.72,1.7,4.31
			c1.16,13.72,2.27,27.45,3.45,41.17c0.44,5.11,0.66,10.28,1.69,15.28c1.21,5.86,5.2,9.33,11.28,9.98c2.23,0.24,2.73-0.58,1.53-1.42
			c-6.06-4.28-0.28-5.7,1.85-7.37c7.44-5.82,15.13-11.34,22.76-16.93c1.25-0.91,2.61-2.6,4.24-1.57c1.72,1.09,0.68,2.94,0.09,4.37
			c-8.88,21.45-17.83,42.87-26.66,64.34C610.89,396.28,609.11,397.6,606.3,396.71z"/>
		<linearGradient id="SVGID_2_" gradientUnits="userSpaceOnUse" x1="409.3367" y1="411.7605" x2="611.4598" y2="411.7605">
			<stop  offset="0" style="stop-color:#BC820C"/>
			<stop  offset="1" style="stop-color:#DFA52D"/>
		</linearGradient>
		<path class="st1" d="M511.87,393.93c26.74,0.35,53.47,0.99,80.02,4.73c4,0.56,7.94,1.56,11.86,2.53c4.53,1.12,7.68,3.2,7.71,8.77
			c0.03,5.42-2.1,8.65-7.01,10.49c-9.21,3.44-18.94,4.64-28.54,5.61c-49.61,5-99.2,5.62-148.6-2.68c-2.92-0.49-5.81-1.25-8.65-2.09
			c-5.54-1.64-9.41-4.13-9.32-11.18c0.1-7.13,4.66-8.48,9.71-9.66c12.4-2.9,25.13-3.61,37.76-4.64
			C475.11,394.3,493.47,393.42,511.87,393.93z M510.67,411.99c-24.03-0.16-48.01,0.54-71.88,3.55c-2.46,0.31-6.61,0.2-6.72,2.49
			c-0.11,2.47,3.95,1.86,6.18,2.23c20.3,3.39,40.85,3.4,61.32,3.65c28.04,0.34,56.11,0.32,83.96-3.87c1.77-0.27,4.82,0.13,4.81-1.84
			c-0.01-2.28-3.27-1.62-5.04-2.36c-1.2-0.5-2.65-0.42-3.99-0.58C556.51,412.54,533.61,411.86,510.67,411.99z"/>
		<linearGradient id="SVGID_3_" gradientUnits="userSpaceOnUse" x1="533.28" y1="307.3672" x2="552.7689" y2="307.3672">
			<stop  offset="0" style="stop-color:#BC820C"/>
			<stop  offset="1" style="stop-color:#DFA52D"/>
		</linearGradient>
		<path class="st2" d="M551.95,305.11c1.28,8.88,1.91,17.28-4.87,24.95c-2.58,2.91-3.57,3-6.14,0.97
			c-7.09-5.6-9.77-16.16-5.88-24.25c3.25-6.77,6.58-13.51,10.11-20.13c0.92-1.73,1.66-4.8,4.09-4.25c1.76,0.39,1.06,3.29,1.24,5.07
			C551.08,293.33,551.48,299.22,551.95,305.11z"/>
		<linearGradient id="SVGID_4_" gradientUnits="userSpaceOnUse" x1="465.8809" y1="307.0449" x2="486.4555" y2="307.0449">
			<stop  offset="0" style="stop-color:#BC820C"/>
			<stop  offset="1" style="stop-color:#DFA52D"/>
		</linearGradient>
		<path class="st3" d="M470.71,280.99c0.41,1.01,0.68,2.1,1.26,3c5.72,8.89,9.79,18.63,14.15,28.19c2.06,4.51-6,19.14-10.51,20.64
			c-1.17,0.39-2.23,0.53-2.7-0.66c-2.29-5.78-8.15-9.75-6.85-17.49c1.56-9.27,1.44-18.82,2.1-28.24c0.1-1.48,0.52-2.93,0.79-4.39
			C469.54,281.69,470.13,281.34,470.71,280.99z"/>
		<linearGradient id="SVGID_5_" gradientUnits="userSpaceOnUse" x1="500.0933" y1="242.789" x2="518.7087" y2="242.789">
			<stop  offset="0" style="stop-color:#BC820C"/>
			<stop  offset="1" style="stop-color:#DFA52D"/>
		</linearGradient>
		<path class="st4" d="M518.71,243.37c-0.06,7.4-4.72,14.13-9.62,13.92c-4.83-0.21-9.05-6.58-8.99-13.57
			c0.06-7.22,4.92-15.21,9.39-15.43C514.31,228.05,518.78,235.36,518.71,243.37z"/>
		<linearGradient id="SVGID_6_" gradientUnits="userSpaceOnUse" x1="598.1675" y1="326.7763" x2="616.2399" y2="326.7763">
			<stop  offset="0" style="stop-color:#BC820C"/>
			<stop  offset="1" style="stop-color:#DFA52D"/>
		</linearGradient>
		<path class="st5" d="M616.17,311.5c-1.5,8.54-3.03,17.03-4.48,25.54c-0.72,4.22-4.35,6.07-7.05,8.53
			c-2.66,2.42-3.97-0.47-4.5-2.33c-2.08-7.31-3.88-14.61,2.02-21.33c3.38-3.84,6.23-8.15,9.39-12.18c0.93-1.18,1.69-3.29,3.62-2.51
			C617.14,308.01,615.68,310.06,616.17,311.5z"/>
		<linearGradient id="SVGID_7_" gradientUnits="userSpaceOnUse" x1="402.1829" y1="326.5035" x2="420.2047" y2="326.5035">
			<stop  offset="0" style="stop-color:#BC820C"/>
			<stop  offset="1" style="stop-color:#DFA52D"/>
		</linearGradient>
		<path class="st6" d="M420.18,333.63c0,0.8,0.07,1.62-0.01,2.41c-0.41,3.9-0.1,9.82-4.44,9.81c-3.73-0.01-7.93-4.15-8.84-9.14
			c-1.57-8.7-3.03-17.42-4.4-26.15c-0.24-1.54-1.21-4.43,2.38-3.02C409.33,309.29,420.33,328.19,420.18,333.63z"/>
		<linearGradient id="SVGID_8_" gradientUnits="userSpaceOnUse" x1="414.6806" y1="264.5329" x2="429.9523" y2="264.5329">
			<stop  offset="0" style="stop-color:#BC820C"/>
			<stop  offset="1" style="stop-color:#DFA52D"/>
		</linearGradient>
		<path class="st7" d="M429.95,268.82c-0.13,2.71-1.11,6.45-5.84,6.95c-4.79,0.51-9.53-6.87-9.43-14.12
			c0.06-4.12,1.25-7.8,5.82-8.36C425.19,252.73,430.08,260.4,429.95,268.82z"/>
		<linearGradient id="SVGID_9_" gradientUnits="userSpaceOnUse" x1="588.7427" y1="264.5508" x2="603.9841" y2="264.5508">
			<stop  offset="0" style="stop-color:#BC820C"/>
			<stop  offset="1" style="stop-color:#DFA52D"/>
		</linearGradient>
		<path class="st8" d="M603.98,262.02c-0.39,6.18-1.94,12.4-8.93,13.52c-5.11,0.82-6.49-4.05-6.3-8.35
			c0.28-6.21,1.97-12.54,8.93-13.65C602.67,252.76,603.98,257.49,603.98,262.02z"/>
		<linearGradient id="SVGID_10_" gradientUnits="userSpaceOnUse" x1="640.7485" y1="311.7458" x2="653.7537" y2="311.7458">
			<stop  offset="0" style="stop-color:#BC820C"/>
			<stop  offset="1" style="stop-color:#DFA52D"/>
		</linearGradient>
		<path class="st9" d="M653.75,310.3c-0.3,4.07-2.05,8.45-7.69,9.46c-3.58,0.64-5.64-1.76-5.27-5.27c0.57-5.4,3.02-9.93,8.85-10.8
			C653.18,303.16,653.7,306.32,653.75,310.3z"/>
		<linearGradient id="SVGID_11_" gradientUnits="userSpaceOnUse" x1="364.6386" y1="312.6796" x2="377.8759" y2="312.6796">
			<stop  offset="0" style="stop-color:#BC820C"/>
			<stop  offset="1" style="stop-color:#DFA52D"/>
		</linearGradient>
		<path class="st10" d="M371.6,310.22c0.89,1.65-2.43,3.96-0.05,4.66c1.99,0.58,2.29-2.31,2.75-4.11c0.27-1.06,0.71-3.41,2.13-0.92
			c1.64,2.89,2.26,6.43-0.19,9.09c-2.67,2.91-5.44,0.99-7.7-1.11c-1.99-1.86-3.53-4.14-3.75-6.95c-0.19-2.35-0.77-5.45,2.5-5.9
			C370.82,304.5,371.85,307.08,371.6,310.22z"/>
		<linearGradient id="SVGID_12_" gradientUnits="userSpaceOnUse" x1="463.881" y1="271.7272" x2="471.6216" y2="271.7272">
			<stop  offset="0" style="stop-color:#BC820C"/>
			<stop  offset="1" style="stop-color:#DFA52D"/>
		</linearGradient>
		<path class="st11" d="M468.52,276.73c-2.81-0.85-4.66-2.37-4.64-5.04c0.02-2.41,0.84-5.24,3.78-4.95c2.43,0.23,4,2.57,3.95,5.21
			C471.59,274.14,470.51,275.91,468.52,276.73z"/>
		<linearGradient id="SVGID_13_" gradientUnits="userSpaceOnUse" x1="547.1454" y1="271.6138" x2="554.7756" y2="271.6138">
			<stop  offset="0" style="stop-color:#BC820C"/>
			<stop  offset="1" style="stop-color:#DFA52D"/>
		</linearGradient>
		<path class="st12" d="M554.78,271.34c-0.33,2.71-1.59,5.09-4.25,5.18c-2.55,0.09-3.44-2.53-3.38-4.71c0.07-2.58,1.46-5,4.21-5.09
			C554.08,266.62,554.25,269.35,554.78,271.34z"/>
		<linearGradient id="SVGID_14_" gradientUnits="userSpaceOnUse" x1="616.0743" y1="300.7986" x2="620.3008" y2="300.7986">
			<stop  offset="0" style="stop-color:#BC820C"/>
			<stop  offset="1" style="stop-color:#DFA52D"/>
		</linearGradient>
		<path class="st13" d="M620.3,300.56c-0.21,1.5-0.62,3.11-2.74,3.02c-1.38-0.06-1.54-1.29-1.48-2.35c0.1-1.7,0.73-3.24,2.72-3.22
			C620.11,298.03,620.29,299.28,620.3,300.56z"/>
		<linearGradient id="SVGID_15_" gradientUnits="userSpaceOnUse" x1="398.458" y1="301.0052" x2="402.412" y2="301.0052">
			<stop  offset="0" style="stop-color:#BC820C"/>
			<stop  offset="1" style="stop-color:#DFA52D"/>
		</linearGradient>
		<path class="st14" d="M402.41,301.2c-0.2,1.01-0.13,2.3-1.65,2.25c-1.64-0.06-2.28-1.22-2.3-2.68c-0.02-1.11,0.33-2.2,1.72-2.21
			C401.89,298.54,402.37,299.72,402.41,301.2z"/>
	</g>
	<g>
		<linearGradient id="SVGID_16_" gradientUnits="userSpaceOnUse" x1="497.6772" y1="351.8298" x2="523.6196" y2="351.8298">
			<stop  offset="0" style="stop-color:#94040C"/>
			<stop  offset="1" style="stop-color:#B70406"/>
		</linearGradient>
		<path class="st15" d="M523.33,344.18c1.8,10.22-4.98,25.45-12.75,25.5c-7.69,0.05-13.96-15.83-12.75-25.5
			c0.48-3.83,2.01-5.76,2.55-6.37c3.23-3.72,8.36-3.8,10.2-3.82c2.02-0.03,5.85-0.1,8.92,2.55
			C522.37,339,523.01,342.38,523.33,344.18z"/>
		<circle class="st16" cx="511.37" cy="326.68" r="4.06"/>
		<circle class="st16" cx="521.1" cy="329.93" r="4.06"/>
		<circle class="st16" cx="527.6" cy="338.04" r="4.06"/>
		<circle class="st16" cx="529.22" cy="347.78" r="4.06"/>
		<circle class="st16" cx="527.6" cy="359.14" r="4.06"/>
		<circle class="st16" cx="521.1" cy="370.49" r="4.06"/>
		<circle class="st16" cx="500.01" cy="329.93" r="4.06"/>
		<circle class="st16" cx="493.52" cy="338.04" r="4.06"/>
		<circle class="st16" cx="491.9" cy="347.78" r="4.06"/>
		<circle class="st16" cx="493.52" cy="359.14" r="4.06"/>
		<circle class="st16" cx="500.01" cy="370.49" r="4.06"/>
		<circle class="st16" cx="511.37" cy="376.99" r="4.06"/>
	</g>
</g>
<g>
	<g>
		<path class="st16" d="M342.15,485.07c1.54-1.42,3.12-1.62,4.63-1.59c11.22,0.19,22.45-0.6,33.67,0.47
			c3.76,0.36,6.6,1.78,9.15,4.52c8.09,8.7,16.77,16.84,25.41,24.95c16.54,15.53,32.2,31.94,48.66,47.53
			c26.52,25.12,52.56,50.72,78.69,76.24c19.37,18.91,38.79,37.77,58.38,56.45c17.19,16.4,33.72,33.46,51.21,49.55
			c9.39,8.65,18.23,17.9,27.31,26.88c1.56,1.54,3.16,3.08,3.61,5.5c-1.35,2.32-3.66,2.1-5.78,2.12c-9.69,0.11-19.38,0.1-29.07,0.23
			c-4.25,0.06-7.56-1.58-10.56-4.54c-19.95-19.58-39.89-39.17-60.01-58.58c-17.58-16.96-34.9-34.19-52.58-51.04
			c-17.69-16.85-34.61-34.49-52.57-51.04c-14.73-13.58-28.4-28.23-43.27-41.68c-12.39-11.2-23.83-23.43-35.77-35.13
			c-16.04-15.71-32.17-31.34-48.25-47.01C343.92,487.86,342.53,487.02,342.15,485.07z"/>
	</g>
</g>
<g>
	<path d="M805.99,767.29c0.39,15.55-13.02,28.83-28.98,28.63c-15.24-0.2-28.49-13.12-28.24-29.17
		c0.24-15.16,13.13-28.41,29.21-28.13C793.16,738.88,806.38,751.72,805.99,767.29z M777.4,793.53c14.68-0.41,26.18-11.44,26.2-26.24
		c0.02-14.68-11.34-26.18-26.15-26.2c-14.68-0.02-26.18,11.34-26.2,26.15C751.22,781.91,762.59,793.08,777.4,793.53z"/>
	<path d="M771.72,773.41c0,3.67,0,7.27,0,10.91c-2.51,0-4.96,0-7.46,0c0-11.37,0-22.73,0-34.1c0.19-0.13,0.41-0.07,0.61-0.07
		c5.01,0,10.02,0,15.03,0c2.59,0,5.11,0.39,7.42,1.63c3.37,1.8,5.06,4.7,5.38,8.45c0.15,1.75,0.04,3.48-0.51,5.16
		c-1.01,3.11-3.13,5.18-6.08,6.47c-0.21,0.09-0.42,0.18-0.67,0.29c2.77,4.06,5.53,8.09,8.33,12.18c-2.97,0-5.84,0-8.78,0
		c-2.42-3.61-4.86-7.26-7.31-10.92C775.7,773.41,773.75,773.41,771.72,773.41z M771.74,766.79c2.95-0.07,5.85,0.14,8.75-0.11
		c2.47-0.21,4.93-1.8,4.62-5.41c-0.14-1.68-0.93-2.92-2.45-3.67c-0.89-0.43-1.84-0.65-2.82-0.65c-2.58-0.02-5.16-0.02-7.74-0.02
		c-0.11,0-0.23-0.03-0.35,0.1C771.74,760.23,771.74,763.45,771.74,766.79z"/>
</g>
</svg>
